<?xml version="1.0" encoding="iso-8859-1"?>
<!-- Uploaded to: SVG Repo, www.svgrepo.com, Generator: SVG Repo Mixer Tools -->
<!DOCTYPE svg PUBLIC "-//W3C//DTD SVG 1.1//EN" "http://www.w3.org/Graphics/SVG/1.1/DTD/svg11.dtd">
<svg fill="#000000" height="800px" width="800px" version="1.1" id="Capa_1" xmlns="http://www.w3.org/2000/svg" xmlns:xlink="http://www.w3.org/1999/xlink" 
	 viewBox="0 0 401.845 401.845" xml:space="preserve">
<g>
	<path d="M160.193,20c10.619,0,21.591,7.131,26.479,17.308c9.167,19.083,4.5,76.583,4.5,76.583
		c-2.833,29.334,7.667,48.5,19.525,49.646c0.608,0.059,10.701,0.078,23.893,0.078c26.378,0,65.136-0.078,65.136-0.078
		c13.515,0,24.472,10.956,24.472,24.471c0,12.401-9.212,24.146-21.188,24.146c-0.045,0.008-31.957,0.023-31.957,0.023
		s-0.089-0.014-0.135-0.014h-8.617c-2.201,0-3.985,1.784-3.985,3.985c0,2.2,1.784,3.984,3.985,3.984h39.694
		c13.328,0.218,24.067,11.083,24.067,24.464c0,13.515-10.957,24.472-24.473,24.472l-40.221,0.02c-2.168,0-3.925,1.757-3.925,3.925
		c0,2.166,1.757,3.923,3.925,3.923l34.014-0.008c12.305,0,20.893,11.957,20.893,24.256c0,13.517-10.956,24.422-24.472,24.422
		l-32.937-0.001c-2.109,0-3.819,1.71-3.819,3.819s2.71,3.868,4.819,3.868l21.365-0.014c11.19,0,19.771,12.108,19.771,24.017
		c0,13.515-10.957,24.372-24.472,24.372l-95.96,0.178c-41.815,0-104.791-17.009-104.791-116.37
		c0-110.642,44.192-154.824,60.641-222.756C140.371,26.41,150.123,20,160.193,20 M160.193,0c-16.439,0-36.423,9.985-43.209,38.012
		c-5.229,21.595-13.708,41.133-22.685,61.818c-18.054,41.599-38.517,88.749-38.517,165.645c0,50.367,14.894,87.747,44.269,111.101
		c20.793,16.531,48.638,25.27,80.522,25.27l95.997-0.178c24.484,0,44.435-19.905,44.435-44.372c0-6.588-1.498-13.278-4.246-19.358
		c11.772-8,19.518-21.49,19.518-36.753c0-8.32-2.132-16.111-5.837-22.767c9.555-8.163,15.623-20.296,15.623-33.82
		c0-10.831-3.859-21.095-10.92-29.189c5.858-7.876,9.055-17.499,9.055-27.4c0-24.521-19.95-44.471-44.472-44.471
		c-0.428,0.001-39.08,0.078-65.136,0.078c-10.763,0-16.542-0.014-19.641-0.028c-1.948-3.143-5.391-12.023-3.87-27.772l0.015-0.152
		l0.013-0.153c0.05-0.619,1.231-15.369,1.253-32.728c0.042-34.14-4.351-47.245-7.66-54.132C196.469,11.513,178.583,0,160.193,0
		L160.193,0z"/>
</g>
</svg>